<?xml version="1.0" encoding="UTF-8" standalone="no"?>
<!DOCTYPE svg PUBLIC "-//W3C//DTD SVG 1.1//EN" "http://www.w3.org/Graphics/SVG/1.1/DTD/svg11.dtd">
<!-- Created with Vectornator (http://vectornator.io/) -->
<svg height="100%" stroke-miterlimit="10" style="fill-rule:nonzero;clip-rule:evenodd;stroke-linecap:round;stroke-linejoin:round;" version="1.1" viewBox="0 0 1417.5 1134" width="100%" xml:space="preserve" xmlns="http://www.w3.org/2000/svg" xmlns:xlink="http://www.w3.org/1999/xlink">
<defs/>
<g id="Layer-1">
<path d="M342.11 472.738C338.694 477.618 319.051 512.267 283.182 576.686C247.312 641.104 230.842 674.778 233.77 677.706C236.698 680.634 245.726 686.49 260.855 695.275C275.983 704.059 284.158 708.329 285.378 708.085C286.598 707.841 290.99 701.497 298.554 689.052C306.119 676.608 325.517 642.325 356.751 586.202C387.984 530.08 403.356 501.409 402.868 500.189C402.38 498.969 399.818 496.773 395.182 493.601C390.546 490.429 381.395 484.938 367.731 477.13C354.066 469.322 345.526 467.858 342.11 472.738ZM802.922 480.424C787.061 489.941 778.155 495.553 776.203 497.261C774.251 498.969 773.275 500.311 773.275 501.287C773.275 502.263 785.841 525.444 810.974 570.83C836.107 616.215 855.384 650.499 868.805 673.68C882.225 696.861 889.301 708.573 890.033 708.817C890.765 709.061 897.476 705.645 910.164 698.569C922.853 691.492 931.881 686.124 937.249 682.464C942.617 678.804 945.424 676.364 945.668 675.144C945.912 673.924 941.275 664.285 931.759 646.229C922.243 628.172 907.846 602.063 888.569 567.902C869.293 533.74 855.018 508.851 845.746 493.235C836.473 477.618 831.349 469.2 830.373 467.98C829.397 466.76 828.543 466.15 827.811 466.15C827.079 466.15 818.783 470.908 802.922 480.424ZM584.045 522.882C573.553 523.614 563.427 524.712 553.666 526.176C543.906 527.64 535.854 529.226 529.509 530.934C523.165 532.642 518.651 534.228 515.967 535.692C513.283 537.156 507.426 543.867 498.398 555.823C489.37 567.78 479.975 581.078 470.215 595.719C460.455 610.359 454.72 619.754 453.012 623.902C451.304 628.05 450.45 632.198 450.45 636.346C450.45 640.494 450.694 642.935 451.182 643.667C451.67 644.399 452.402 645.009 453.378 645.497C454.354 645.985 457.282 646.229 462.163 646.229C467.043 646.229 472.899 645.253 479.731 643.301C486.564 641.348 492.298 639.03 496.934 636.346C501.57 633.662 506.206 630.49 510.843 626.83C515.479 623.17 520.115 618.9 524.751 614.019C529.387 609.139 533.291 604.259 536.464 599.379C539.636 594.499 547.566 590.228 560.254 586.568C572.943 582.908 586.485 584.616 600.882 591.693C615.279 598.769 633.457 608.773 655.418 621.706C677.379 634.638 699.218 648.669 720.935 663.797C742.652 678.926 763.392 694.299 783.157 709.915C802.922 725.532 816.586 730.9 824.151 726.02C831.715 721.14 839.889 714.429 848.674 705.889C857.458 697.349 846.844 666.481 816.831 613.287C786.817 560.093 768.273 534.228 761.196 535.692C754.12 537.156 747.288 537.888 740.7 537.888C734.111 537.888 718.617 535.448 694.216 530.568C669.815 525.688 647.976 523.004 628.699 522.516C609.422 522.028 594.538 522.15 584.045 522.882ZM358.581 614.385C328.567 667.335 313.439 694.421 313.195 695.641C312.951 696.861 317.343 703.083 326.371 714.307C335.4 725.532 343.208 729.314 349.796 725.654C356.384 721.994 362.729 720.164 368.829 720.164C374.929 720.164 380.663 721.506 386.032 724.19C391.4 726.874 395.548 729.802 398.476 732.974C401.404 736.146 403.844 739.684 405.796 743.588C406.772 745.541 407.749 747.493 408.725 749.445C411.165 746.517 413.605 743.588 416.045 740.66C420.925 734.804 425.073 731.022 428.489 729.314C431.905 727.606 436.542 726.63 442.398 726.386C448.254 726.142 452.524 726.386 455.208 727.118C457.892 727.85 460.943 729.192 464.359 731.144C467.775 733.096 470.703 735.292 473.143 737.732C475.583 740.172 477.901 743.466 480.097 747.615C482.293 751.763 483.757 757.619 484.49 765.183C485.222 772.748 487.174 776.53 490.346 776.53C493.518 776.53 497.91 777.994 503.522 780.922C509.134 783.85 513.161 786.534 515.601 788.974C518.041 791.414 520.359 794.708 522.555 798.857C524.751 803.005 526.215 806.543 526.947 809.471C527.679 812.399 527.923 815.693 527.679 819.353C527.435 823.014 529.387 825.21 533.535 825.942C537.684 826.674 541.71 827.894 545.614 829.602C549.518 831.31 552.934 833.384 555.862 835.824C558.79 838.264 561.231 840.826 563.183 843.51C565.135 846.194 566.965 849.855 568.673 854.491C570.381 859.127 571.235 863.763 571.235 868.399C571.235 873.036 570.869 876.574 570.137 879.014C569.405 881.454 567.819 884.626 565.379 888.53C562.939 892.434 561.841 894.996 562.085 896.216C562.329 897.436 568.917 899.877 581.849 903.537C594.782 907.197 606.128 909.393 615.889 910.125C625.649 910.857 633.091 910.613 638.216 909.393C643.34 908.173 648.952 904.879 655.052 899.511C661.152 894.142 664.325 890.97 664.569 889.994C664.813 889.018 664.569 888.286 663.837 887.798C663.104 887.31 651.392 881.454 628.699 870.229C606.006 859.005 594.294 853.027 593.562 852.295C592.83 851.563 592.464 850.099 592.464 847.903C592.464 845.706 593.318 843.876 595.026 842.412C596.734 840.948 599.906 840.948 604.542 842.412C609.178 843.876 619.305 848.513 634.921 856.321C650.538 864.129 662.128 869.497 669.693 872.426C677.257 875.354 682.991 876.94 686.895 877.184C690.8 877.428 694.094 877.306 696.778 876.818C699.462 876.33 701.78 875.598 703.732 874.622C705.684 873.646 707.636 872.06 709.588 869.863C711.54 867.667 713.248 864.617 714.713 860.713C716.177 856.809 716.787 853.881 716.543 851.929C716.299 849.977 713.98 847.293 709.588 843.876C705.196 840.46 690.19 831.31 664.569 816.425C638.948 801.541 625.649 793.488 624.673 792.268C623.697 791.048 623.209 789.828 623.209 788.608C623.209 787.388 624.185 785.802 626.137 783.85C628.089 781.898 630.163 781.166 632.359 781.654C634.555 782.142 648.22 789.706 673.353 804.347C698.486 818.987 714.102 827.772 720.203 830.7C726.303 833.628 731.549 835.092 735.941 835.092C740.334 835.092 743.872 834.726 746.556 833.994C749.24 833.262 752.412 831.31 756.072 828.138C759.732 824.966 762.05 821.916 763.026 818.987C764.002 816.059 764.49 812.643 764.49 808.739C764.49 804.835 764.246 802.273 763.758 801.053C763.27 799.833 745.458 788.608 710.32 767.379C675.183 746.151 657.004 734.804 655.784 733.34C654.564 731.876 654.076 730.412 654.32 728.948C654.564 727.484 655.174 726.142 656.15 724.922C657.126 723.702 658.956 723.336 661.64 723.824C664.325 724.312 667.863 725.654 672.255 727.85C676.647 730.046 695.558 741.27 728.987 761.523C762.416 781.776 782.791 791.658 790.111 791.17C797.432 790.682 801.824 790.072 803.288 789.34C804.752 788.608 806.704 786.778 809.144 783.85C811.584 780.922 813.17 778.36 813.902 776.164C814.634 773.968 815 771.162 815 767.745C815 764.329 814.634 761.523 813.902 759.327C813.17 757.131 811.584 754.569 809.144 751.641C806.704 748.713 801.702 744.076 794.138 737.732C786.573 731.388 773.519 721.262 754.974 707.353C736.429 693.445 718.373 680.512 700.804 668.556C683.235 656.599 666.277 645.741 649.928 635.98C633.579 626.22 617.719 617.314 602.346 609.261C586.974 601.209 574.773 598.403 565.745 600.843C556.716 603.283 548.42 609.017 540.856 618.046C533.291 627.074 526.947 633.662 521.823 637.81C516.699 641.959 511.087 645.741 504.986 649.157C498.886 652.573 491.444 655.501 482.659 657.941C473.875 660.381 466.921 661.601 461.797 661.601C456.672 661.601 452.28 660.991 448.62 659.771C444.96 658.551 441.91 656.599 439.47 653.915C437.03 651.231 435.566 649.035 435.078 647.327C434.59 645.619 434.346 642.813 434.346 638.908C434.346 635.004 434.834 630.978 435.81 626.83C436.786 622.682 439.104 617.192 442.764 610.359C446.424 603.527 453.012 593.035 462.529 578.882C467.287 571.806 472.045 564.729 476.803 557.653C470.093 556.433 463.383 555.213 456.672 553.993C443.252 551.553 434.468 549.601 430.319 548.137C426.171 546.673 421.535 544.355 416.411 541.183C411.287 538.01 407.871 536.18 406.162 535.692C404.454 535.204 388.594 561.435 358.581 614.385ZM360.777 736.268C358.581 737.244 356.018 739.44 353.09 742.856C350.162 746.273 346.868 750.665 343.208 756.033C339.548 761.401 337.23 765.549 336.254 768.477C335.278 771.406 334.912 773.968 335.156 776.164C335.4 778.36 336.254 781.044 337.718 784.216C339.182 787.388 341.134 790.194 343.574 792.634C346.014 795.074 348.82 797.027 351.992 798.491C355.164 799.955 358.459 800.687 361.875 800.687C365.291 800.687 367.975 800.077 369.927 798.857C371.879 797.637 375.173 794.22 379.809 788.608C384.446 782.996 387.984 778.116 390.424 773.968C392.864 769.82 394.084 765.671 394.084 761.523C394.084 757.375 393.352 753.715 391.888 750.543C390.424 747.371 388.594 744.687 386.398 742.49C384.202 740.294 381.883 738.586 379.443 737.366C377.003 736.146 373.831 735.414 369.927 735.17C366.023 734.926 362.973 735.292 360.777 736.268ZM437.274 741.758C435.322 742.49 433.125 744.199 430.685 746.883C428.245 749.567 419.095 761.767 403.234 783.484C387.374 805.201 379.199 817.767 378.711 821.184C378.223 824.6 378.345 827.65 379.077 830.334C379.809 833.018 380.785 835.336 382.005 837.288C383.226 839.24 385.666 841.68 389.326 844.608C392.986 847.537 397.256 849.245 402.136 849.733C407.016 850.221 410.311 850.099 412.019 849.367C413.727 848.635 418.119 843.998 425.195 835.458C432.271 826.918 441.422 814.595 452.646 798.491C463.871 782.386 469.483 772.138 469.483 767.745C469.483 763.353 468.507 759.327 466.555 755.667C464.603 752.007 461.797 748.835 458.136 746.151C454.476 743.466 450.572 741.88 446.424 741.392C442.276 740.904 439.226 741.026 437.274 741.758ZM480.463 791.902C478.999 792.39 476.681 794.342 473.509 797.759C470.337 801.175 462.773 811.057 450.816 827.406C438.86 843.754 432.637 853.881 432.149 857.785C431.661 861.689 431.905 865.105 432.881 868.033C433.858 870.961 435.81 874.134 438.738 877.55C441.666 880.966 444.35 883.284 446.79 884.504C449.23 885.724 452.524 886.456 456.672 886.7C460.821 886.944 464.115 886.334 466.555 884.87C468.995 883.406 473.021 879.136 478.633 872.06C484.245 864.983 491.078 855.589 499.13 843.876C507.182 832.164 511.331 823.99 511.575 819.353C511.819 814.717 510.965 810.447 509.012 806.543C507.06 802.639 504.132 799.345 500.228 796.661C496.324 793.976 492.42 792.39 488.516 791.902C484.612 791.414 481.927 791.414 480.463 791.902ZM524.385 842.412C521.457 843.388 519.261 844.608 517.797 846.072C516.333 847.537 512.551 852.295 506.45 860.347C500.35 868.399 495.836 874.866 492.908 879.746C489.98 884.626 488.394 888.164 488.15 890.36C487.906 892.556 488.272 895.362 489.248 898.779C490.224 902.195 492.176 905.611 495.104 909.027C498.032 912.443 500.838 914.883 503.522 916.347C506.206 917.811 509.134 918.665 512.307 918.909C515.479 919.153 518.163 918.909 520.359 918.177C522.555 917.445 527.313 912.687 534.633 903.903C541.954 895.118 547.444 887.554 551.104 881.21C554.764 874.866 556.35 869.741 555.862 865.837C555.374 861.933 554.154 858.395 552.202 855.223C550.25 852.051 547.322 849.123 543.418 846.439C539.514 843.754 536.098 842.168 533.169 841.68C530.241 841.192 527.313 841.436 524.385 842.412Z" fill="#0a8a7b" fill-rule="nonzero" opacity="1" stroke="none"/>
<g opacity="1">
<path d="M849.446 413.403L870.097 410.441" fill="#ffffff" fill-rule="nonzero" opacity="1" stroke="none"/>
<path d="M256.076 851.148L253.824 835.44" fill="#ffffff" fill-rule="nonzero" opacity="1" stroke="none"/>
<path d="M1359.81 647.874C1358.52 638.97 1350.58 632.622 1341.56 633.418C1307.33 636.245 1276.53 612.243 1271.69 578.321C1266.81 544.417 1289.46 512.56 1323.24 505.807C1332.06 504.046 1337.95 495.701 1336.68 486.798L1303.88 258.336C1303.24 253.885 1300.85 249.873 1297.26 247.198C1293.67 244.507 1289.26 243.373 1284.7 243.999L1254.34 248.366L1195.46 71.0917C1192.5 62.2051 1182.94 57.3979 1174.05 60.36L949.907 134.787C941.409 137.614 936.585 146.551 938.887 155.218C942.374 168.269 935.129 181.793 922.401 186.008C909.705 190.206 895.825 183.706 890.781 171.18C887.464 162.886 878.272 158.603 869.741 161.413L123.928 409.053C122.404 409.561 121.084 410.407 119.815 411.27L39.226 422.848C34.7911 423.491 30.7795 425.861 28.0881 429.45C25.4137 433.038 24.2457 437.558 24.8889 442.009L57.6423 670.082C58.9796 679.273 67.3414 685.722 76.685 684.452C111.842 679.662 144.579 704.358 149.623 739.465C154.684 774.571 130.225 807.46 95.1184 812.775C85.9271 814.18 79.5626 822.711 80.8829 831.919L113.636 1059.99C114.28 1064.44 116.666 1068.45 120.255 1071.13C123.2 1073.33 126.772 1074.51 130.411 1074.51C131.206 1074.51 132.019 1074.46 132.831 1074.35L1060.91 941.08C1065.55 940.403 1069.73 937.847 1072.41 933.988C1075.08 930.129 1076.05 925.338 1075.05 920.751L1074.59 919.211C1073.61 912.457 1075.33 905.72 1079.41 900.253C1083.51 894.785 1089.5 891.231 1096.26 890.266C1102.96 889.284 1109.75 891.011 1115.2 895.107C1120.66 899.203 1124.22 905.178 1125.1 911.289C1125.1 911.644 1125.15 913.151 1125.18 913.523C1125.52 918.212 1127.77 922.545 1131.43 925.508C1135.09 928.47 1139.71 929.756 1144.48 929.079L1378.27 895.513C1382.71 894.87 1386.72 892.5 1389.41 888.912C1392.09 885.323 1393.25 880.804 1392.61 876.352L1359.81 647.874ZM1154.99 893.33C1151 883.326 1144.31 874.592 1135.48 867.973C1122.76 858.46 1107.09 854.466 1091.41 856.717C1075.69 858.968 1061.81 867.212 1052.28 879.907C1045.64 888.742 1041.72 899.017 1040.67 909.732L144.714 1038.38L116.565 842.261C160.964 827.467 189.976 782.391 183.121 734.607C176.249 686.822 135.726 651.733 88.957 650.023L60.7907 453.909L958.522 325.011C969.846 346.965 994.238 360.27 1019.56 356.597C1045.04 352.94 1064.6 333.356 1069.29 309.117L1272.74 279.901L1301.04 477.031C1258.4 493.061 1231.48 536.834 1238.12 583.128C1244.77 629.423 1282.93 663.853 1328.34 667.238L1356.64 864.368L1154.99 893.33Z" fill="#0a8a7b" fill-rule="nonzero" opacity="1" stroke="none"/>
<path d="M1024.81 410.695C1029.43 410.035 1032.66 405.752 1032 401.114L1029.6 384.357C1028.92 379.736 1024.52 376.536 1020.03 377.18C1015.41 377.84 1012.18 382.122 1012.84 386.76L1015.24 403.518C1015.85 407.749 1019.48 410.779 1023.61 410.779C1024 410.779 1024.4 410.762 1024.81 410.695ZM1037.76 500.847C1042.38 500.17 1045.59 495.888 1044.93 491.266L1039.75 455.212C1039.08 450.557 1034.63 447.324 1030.17 448.035C1025.55 448.712 1022.34 452.995 1023 457.616L1028.18 493.67C1028.79 497.902 1032.41 500.932 1036.54 500.932C1036.94 500.932 1037.35 500.915 1037.76 500.847ZM1063.64 681.152C1068.26 680.475 1071.48 676.192 1070.82 671.571L1065.64 635.517C1064.96 630.879 1060.54 627.697 1056.05 628.34C1051.43 629.017 1048.22 633.3 1048.88 637.921L1054.06 673.975C1054.67 678.206 1058.29 681.236 1062.42 681.236C1062.84 681.236 1063.23 681.219 1063.64 681.152ZM1050.71 590.999C1055.33 590.322 1058.54 586.04 1057.88 581.419L1052.7 545.365C1052.03 540.71 1047.64 537.511 1043.12 538.188C1038.5 538.865 1035.29 543.147 1035.95 547.768L1041.13 583.822C1041.73 588.054 1045.36 591.084 1049.49 591.084C1049.89 591.084 1050.28 591.067 1050.71 590.999ZM1076.59 771.304C1081.21 770.627 1084.42 766.344 1083.76 761.723L1078.58 725.669C1077.91 721.014 1073.54 717.798 1069 718.492C1064.38 719.169 1061.17 723.452 1061.83 728.073L1067.01 764.127C1067.62 768.359 1071.24 771.389 1075.37 771.389C1075.77 771.389 1076.18 771.372 1076.59 771.304ZM1081.95 808.645C1077.33 809.322 1074.12 813.604 1074.78 818.225L1077.2 834.983C1077.81 839.198 1081.43 842.244 1085.56 842.244C1085.96 842.244 1086.37 842.227 1086.78 842.16C1091.4 841.483 1094.61 837.2 1093.95 832.579L1091.53 815.822C1090.86 811.184 1086.46 807.985 1081.95 808.645Z" fill="#0a8a7b" fill-rule="nonzero" opacity="1" stroke="none"/>
</g>
</g>
</svg>
