<?xml version="1.0" standalone="no"?>
<!DOCTYPE svg PUBLIC "-//W3C//DTD SVG 20010904//EN"
 "http://www.w3.org/TR/2001/REC-SVG-20010904/DTD/svg10.dtd">
<svg version="1.0" xmlns="http://www.w3.org/2000/svg"
 width="1418.000000pt" height="1418.000000pt" viewBox="0 0 1418.000000 1418.000000"
 preserveAspectRatio="xMidYMid meet">
<metadata>
Created by potrace 1.14, written by Peter Selinger 2001-2017
</metadata>
<g transform="translate(0.000000,1418.000000) scale(0.100000,-0.100000)"
fill="#000000" stroke="none">
<path d="M11741 12154 c-17 -7 -34 -13 -36 -13 -16 0 -2196 -726 -2225 -741
-46 -24 -89 -86 -91 -130 0 -19 2 -62 6 -95 13 -108 -31 -198 -122 -252 -39
-23 -61 -28 -118 -30 -108 -2 -188 46 -237 142 -40 79 -90 116 -161 116 -29 0
-267 -74 -767 -240 -399 -133 -977 -325 -1285 -427 -308 -102 -567 -188 -575
-191 -8 -3 -19 -7 -25 -9 -5 -1 -273 -90 -595 -197 -322 -107 -1186 -393
-1920 -636 -734 -244 -1344 -446 -1355 -451 -11 -5 -51 -18 -90 -30 -38 -12
-86 -27 -105 -35 -19 -7 -208 -71 -420 -141 -212 -69 -394 -131 -404 -136 -16
-9 -159 -33 -311 -52 -27 -4 -77 -11 -110 -16 -33 -5 -77 -12 -98 -15 -20 -3
-54 -7 -75 -10 -20 -3 -84 -13 -142 -21 -124 -17 -160 -32 -197 -81 -23 -30
-28 -48 -30 -97 -1 -34 2 -82 7 -106 5 -25 11 -70 15 -100 3 -30 8 -62 10 -70
2 -8 7 -42 10 -75 4 -32 8 -62 10 -65 1 -3 6 -30 9 -61 4 -31 9 -67 11 -79 2
-12 7 -48 11 -79 3 -31 8 -58 9 -61 2 -3 7 -35 10 -70 4 -36 8 -67 10 -70 2
-3 6 -34 10 -70 4 -36 8 -67 10 -70 2 -3 6 -32 9 -65 4 -33 9 -67 11 -75 3 -8
7 -37 10 -65 2 -27 7 -61 10 -75 3 -14 7 -41 9 -60 6 -50 47 -331 62 -420 3
-25 8 -60 10 -77 2 -18 8 -58 13 -89 6 -30 10 -58 9 -62 -1 -4 1 -25 5 -47 4
-22 10 -58 13 -80 3 -22 7 -53 10 -70 2 -16 7 -50 10 -75 13 -109 36 -157 90
-191 30 -18 52 -21 177 -24 152 -2 152 -2 241 -34 222 -78 397 -295 422 -524
4 -34 8 -68 9 -75 4 -30 -16 -149 -34 -207 -68 -215 -250 -379 -483 -435 -90
-21 -121 -39 -156 -91 -22 -31 -23 -42 -18 -114 2 -44 10 -109 16 -145 5 -36
15 -101 20 -145 6 -44 13 -87 15 -95 2 -8 7 -40 11 -70 4 -30 8 -64 10 -75 1
-11 5 -40 9 -65 3 -25 10 -70 15 -100 5 -30 12 -77 15 -105 3 -27 10 -77 15
-110 5 -33 11 -78 15 -100 3 -22 7 -53 10 -70 3 -16 7 -48 10 -70 5 -39 10
-67 20 -130 3 -16 8 -55 11 -85 3 -30 7 -57 9 -60 2 -3 6 -37 10 -75 4 -39 9
-72 10 -75 2 -3 6 -33 10 -65 3 -33 8 -67 10 -75 2 -8 7 -35 10 -60 3 -25 8
-56 10 -70 3 -14 7 -45 10 -70 3 -25 7 -56 10 -70 4 -22 10 -63 20 -140 2 -14
7 -50 10 -80 10 -87 26 -129 63 -165 30 -29 105 -60 121 -51 3 2 33 6 66 10
33 3 69 8 80 10 11 2 45 7 75 11 30 4 62 9 70 10 8 1 40 6 70 10 30 4 62 9 71
10 9 2 40 7 70 10 30 4 63 9 74 10 25 4 101 15 135 20 14 2 75 11 135 20 172
24 178 25 210 30 17 3 47 7 68 10 54 7 97 13 142 20 22 3 101 15 175 25 74 10
151 21 170 24 19 3 101 15 182 26 81 12 155 22 165 24 10 2 41 7 68 10 28 4
77 11 110 16 33 5 80 12 105 15 25 3 56 8 70 10 21 3 366 53 480 69 19 3 69
10 110 16 41 6 89 13 105 15 17 2 47 7 68 10 20 3 54 7 75 10 20 3 66 10 102
15 36 5 81 12 100 14 55 7 133 18 152 22 9 1 38 5 65 9 26 4 59 9 73 11 23 3
111 16 205 29 22 3 72 10 110 16 85 13 106 16 170 24 28 4 61 9 75 11 166 24
232 34 269 39 23 3 55 7 70 9 14 3 46 8 71 11 25 3 56 8 70 10 30 5 298 43
355 51 22 2 65 9 95 14 30 5 78 12 105 15 28 4 61 8 75 11 47 7 305 44 345 49
22 3 69 10 105 15 36 5 83 12 105 15 22 3 67 10 100 15 33 5 78 12 100 15 22
3 72 10 110 15 39 5 149 20 245 35 96 14 193 27 215 30 22 3 51 8 65 10 14 2
45 7 70 10 25 4 90 13 145 21 55 8 113 16 130 19 73 9 131 17 148 21 10 1 68
10 130 19 62 8 121 17 132 19 11 2 43 7 70 10 92 13 120 17 145 21 14 2 61 9
105 15 44 6 91 12 105 15 23 3 121 17 215 30 23 3 52 7 65 10 13 2 46 7 74 10
28 3 58 8 66 10 8 2 40 7 70 10 30 3 62 8 70 10 8 2 38 6 65 10 28 3 75 10
105 15 30 5 78 12 105 15 28 3 59 8 70 10 11 2 43 7 70 11 28 3 59 7 70 9 11
1 74 10 140 19 66 9 131 19 145 22 14 2 43 6 65 9 59 8 97 25 127 59 35 39 46
71 42 121 -7 95 -4 137 14 177 27 61 63 100 118 128 157 79 349 -23 370 -197
3 -26 12 -59 19 -74 18 -34 69 -77 101 -85 24 -6 158 2 172 10 4 2 34 6 67 10
33 3 69 8 81 10 12 2 45 7 74 11 29 4 61 8 72 10 10 2 71 11 136 20 119 16
137 19 207 29 22 4 56 9 75 11 19 3 46 7 59 10 13 2 49 7 80 11 31 3 58 8 61
9 3 2 34 6 70 10 36 3 72 8 80 10 8 2 34 6 58 9 23 4 61 8 85 11 23 4 83 12
132 20 50 8 109 16 133 19 85 12 118 16 137 20 11 2 45 7 75 11 30 4 62 9 70
10 8 1 40 6 70 10 30 4 62 9 70 10 8 1 40 6 70 10 30 4 62 9 70 10 8 2 38 6
65 9 199 26 231 40 270 116 14 28 16 49 11 118 -3 46 -8 87 -10 91 -3 4 -8 36
-11 71 -4 36 -8 67 -10 70 -2 3 -6 34 -10 70 -4 36 -8 67 -10 70 -1 3 -6 32
-10 65 -3 32 -8 62 -10 65 -1 3 -6 36 -10 74 -3 38 -8 72 -9 75 -2 3 -7 29
-10 56 -4 28 -12 82 -17 120 -6 39 -12 86 -15 105 -2 19 -6 46 -9 60 -2 14 -7
48 -11 75 -3 28 -7 61 -10 75 -7 38 -23 150 -29 200 -3 25 -7 56 -10 70 -2 14
-6 41 -9 60 -17 122 -36 260 -41 290 -10 69 -34 236 -40 275 -3 22 -7 54 -10
70 -2 17 -7 53 -10 80 -22 177 -65 217 -240 221 -152 3 -253 33 -365 105 -172
111 -285 308 -293 510 -10 251 134 494 357 602 39 20 100 43 136 52 77 20 121
50 145 100 16 36 21 103 10 155 -11 54 -14 77 -20 125 -3 28 -8 61 -10 75 -3
14 -7 41 -9 60 -7 53 -37 262 -41 290 -3 20 -41 280 -70 490 -3 19 -7 46 -10
60 -4 24 -6 36 -20 145 -4 28 -9 61 -11 75 -4 32 -31 211 -39 270 -7 45 -11
75 -20 140 -2 19 -16 112 -29 205 -14 94 -28 193 -31 220 -11 84 -25 124 -56
160 -54 62 -84 64 -327 30 -67 -10 -124 -16 -125 -14 -2 2 -137 408 -300 901
-164 493 -307 908 -317 921 -40 51 -131 75 -189 51z m993 -2221 c7 -32 32
-203 41 -283 4 -30 8 -57 10 -60 2 -3 6 -34 10 -70 4 -36 8 -67 10 -70 2 -3 6
-32 9 -65 4 -33 9 -67 11 -75 2 -8 6 -37 10 -65 3 -27 7 -61 10 -75 2 -14 7
-43 10 -65 3 -22 7 -51 10 -65 2 -14 7 -45 10 -70 2 -25 18 -135 34 -245 16
-110 32 -225 36 -255 3 -30 8 -62 10 -70 2 -8 7 -35 10 -60 3 -25 8 -56 10
-70 3 -14 7 -45 11 -70 3 -25 7 -56 9 -70 2 -14 7 -52 11 -86 l6 -60 -43 -14
c-55 -18 -194 -105 -249 -156 -138 -126 -206 -222 -270 -378 -108 -265 -97
-554 31 -809 55 -108 102 -171 199 -265 148 -144 356 -245 555 -268 28 -4 51
-7 52 -8 1 0 4 -19 7 -41 3 -22 13 -89 22 -150 9 -60 18 -123 20 -140 2 -16 6
-48 10 -70 4 -22 8 -51 9 -65 1 -14 5 -38 8 -55 4 -16 9 -55 12 -85 3 -30 8
-62 10 -70 2 -8 7 -37 10 -65 3 -27 7 -57 10 -65 2 -8 6 -42 10 -75 3 -33 8
-67 10 -75 2 -8 7 -37 10 -65 3 -27 7 -57 10 -65 2 -8 6 -42 10 -75 3 -33 8
-67 10 -75 5 -19 14 -82 21 -140 3 -25 7 -52 9 -60 2 -8 7 -46 11 -85 3 -38 8
-73 10 -76 1 -3 6 -28 9 -55 3 -27 8 -60 10 -74 3 -14 7 -43 11 -65 3 -22 10
-69 15 -104 5 -35 6 -67 2 -72 -4 -4 -32 -10 -62 -13 -30 -4 -64 -9 -75 -11
-12 -2 -41 -7 -66 -10 -25 -3 -108 -15 -185 -26 -77 -11 -152 -22 -168 -24
-15 -2 -63 -9 -107 -15 -44 -6 -92 -13 -107 -15 -51 -7 -388 -56 -413 -60 -39
-5 -112 -16 -140 -20 -14 -2 -61 -9 -105 -15 -44 -6 -91 -13 -105 -15 -14 -2
-45 -6 -70 -10 -75 -11 -93 -14 -140 -20 -25 -3 -57 -8 -72 -11 -69 -11 -86
-13 -138 -19 l-55 -6 -30 58 c-17 33 -62 90 -105 134 -123 125 -265 180 -440
174 -93 -4 -103 -6 -170 -29 -82 -29 -138 -62 -219 -131 -36 -30 -108 -136
-135 -197 -14 -30 -29 -81 -35 -113 -6 -32 -12 -59 -13 -61 -2 -1 -23 -5 -48
-8 -25 -4 -56 -9 -70 -11 -14 -2 -43 -7 -65 -10 -22 -2 -74 -10 -115 -16 -41
-6 -88 -12 -105 -14 -26 -4 -134 -20 -205 -30 -46 -7 -255 -37 -280 -40 -14
-2 -42 -6 -64 -9 -49 -7 -114 -16 -146 -21 -14 -2 -45 -6 -70 -10 -25 -3 -56
-8 -70 -10 -14 -2 -44 -7 -67 -10 -23 -3 -57 -8 -75 -10 -18 -3 -51 -7 -73
-10 -22 -3 -51 -7 -65 -10 -43 -8 -126 -20 -345 -50 -19 -2 -77 -11 -135 -20
-14 -2 -63 -9 -110 -16 -47 -6 -94 -13 -105 -15 -11 -1 -40 -5 -65 -9 -25 -3
-52 -7 -60 -10 -8 -2 -44 -7 -80 -10 -36 -3 -72 -8 -80 -10 -13 -4 -216 -34
-340 -51 -19 -2 -82 -12 -140 -20 -58 -9 -121 -17 -140 -19 -19 -2 -48 -6 -65
-9 -44 -7 -302 -44 -360 -52 -27 -3 -59 -8 -70 -10 -11 -2 -38 -7 -60 -9 -22
-3 -87 -13 -145 -21 -58 -9 -117 -17 -133 -19 -66 -9 -184 -26 -207 -29 -14
-3 -45 -7 -70 -10 -25 -3 -54 -8 -65 -10 -18 -3 -51 -8 -155 -22 -19 -3 -75
-11 -125 -19 -49 -7 -112 -16 -140 -20 -27 -3 -65 -8 -84 -11 -19 -2 -46 -6
-61 -9 -15 -3 -42 -7 -61 -9 -86 -11 -335 -47 -353 -51 -12 -2 -43 -7 -71 -10
-80 -10 -117 -15 -144 -20 -21 -3 -600 -87 -761 -110 -19 -3 -69 -10 -110 -16
-41 -6 -91 -12 -110 -15 -19 -2 -51 -7 -70 -9 -19 -3 -93 -14 -165 -25 -71
-11 -146 -22 -165 -25 -19 -3 -51 -7 -70 -10 -19 -2 -84 -11 -145 -20 -60 -8
-128 -18 -150 -20 -22 -3 -51 -8 -65 -10 -14 -3 -43 -7 -65 -10 -22 -2 -51 -7
-65 -10 -14 -2 -45 -7 -70 -10 -25 -2 -54 -6 -65 -9 -11 -2 -47 -7 -80 -12
-33 -4 -62 -8 -65 -9 -3 -1 -34 -5 -70 -10 -36 -5 -67 -9 -70 -10 -3 -1 -32
-5 -65 -9 -32 -4 -67 -9 -76 -11 -17 -3 -107 -16 -149 -20 -14 -2 -38 -5 -55
-8 -30 -5 -112 -17 -150 -22 -11 -2 -45 -6 -75 -10 -30 -4 -57 -8 -60 -10 -3
-2 -32 -6 -65 -9 -33 -4 -85 -11 -115 -16 -30 -5 -77 -12 -105 -16 -27 -3 -59
-8 -70 -10 -11 -2 -45 -7 -75 -10 -49 -5 -56 -4 -56 13 -1 21 -10 84 -29 209
-8 51 -17 114 -20 140 -3 27 -8 56 -10 64 -3 8 -7 42 -10 75 -3 33 -8 67 -10
75 -2 8 -7 33 -9 55 -3 22 -10 74 -16 115 -17 116 -20 132 -25 175 -3 22 -7
51 -10 65 -2 14 -7 45 -10 70 -3 25 -8 56 -10 70 -2 14 -6 41 -9 60 -7 55 -27
192 -31 220 -3 14 -9 59 -15 101 -6 41 -12 84 -14 95 -2 10 -7 44 -10 75 -4
31 -9 67 -11 80 -11 57 -28 190 -24 192 2 2 52 27 111 55 273 132 459 363 532
657 24 99 35 266 22 330 -2 11 -7 42 -10 68 -9 63 -52 199 -83 262 -154 307
-451 513 -792 550 -30 3 -56 7 -57 8 -4 4 -13 55 -19 107 -3 25 -8 54 -10 65
-2 11 -7 43 -10 70 -4 28 -8 57 -10 65 -2 8 -7 42 -11 75 -3 33 -7 62 -9 65
-2 3 -6 37 -10 75 -4 39 -9 73 -11 76 -2 3 -6 34 -10 70 -3 35 -8 67 -10 70
-1 3 -6 31 -9 63 -4 31 -8 67 -11 79 -4 20 -28 185 -39 262 -10 74 -16 122
-20 145 -4 22 -13 84 -30 205 -3 22 -10 69 -15 105 -5 36 -12 81 -14 100 -12
85 -17 119 -27 183 -12 71 -10 80 19 83 22 2 179 24 212 29 14 2 93 14 175 25
83 12 160 23 171 25 12 2 48 7 80 10 33 4 68 9 79 11 11 3 83 13 160 25 187
27 183 26 240 34 48 6 61 8 130 19 27 4 76 11 145 21 14 2 61 9 106 15 44 6
89 12 100 14 35 7 99 16 143 21 23 3 55 7 70 9 14 3 94 14 176 26 83 12 161
23 175 25 39 6 252 37 280 40 24 4 404 58 480 69 19 3 101 15 182 26 81 12
155 22 165 24 10 2 43 7 73 11 68 8 108 14 140 20 14 3 48 7 75 10 28 4 91 12
140 20 50 7 108 16 130 20 22 3 58 8 80 11 22 2 51 7 65 9 14 2 45 7 70 10 25
3 56 8 70 10 14 2 45 7 70 10 25 3 56 7 70 10 14 2 43 7 65 10 22 2 101 14
176 25 74 10 153 22 175 24 61 8 117 16 146 22 15 3 40 7 57 9 47 6 183 25
211 29 14 2 46 7 71 10 25 4 57 8 70 10 65 11 126 19 149 22 14 1 72 10 130
18 58 9 119 18 135 20 17 3 53 8 80 12 28 3 59 8 70 10 11 2 43 6 70 9 28 4
61 8 75 10 14 2 90 14 170 25 80 11 156 22 170 24 14 2 47 7 73 11 27 4 59 8
70 11 12 2 42 6 67 9 25 3 52 7 60 10 8 2 42 6 75 10 33 3 67 8 75 10 15 4 40
8 135 20 28 4 62 9 76 11 15 2 138 20 275 39 137 20 260 38 274 40 14 2 48 7
75 11 28 3 58 8 69 10 10 2 44 6 75 9 31 4 63 8 71 11 8 2 35 6 60 9 25 3 56
8 70 10 14 2 63 9 110 15 46 6 87 13 90 15 3 1 39 6 80 10 41 4 77 8 80 10 3
2 29 6 59 10 30 4 63 8 74 11 11 2 57 8 101 14 87 12 126 18 166 25 14 2 49 7
79 10 30 4 61 8 70 10 9 1 39 6 66 9 28 4 62 9 77 11 22 4 30 -1 51 -38 75
-128 235 -236 393 -267 59 -12 191 -10 243 3 207 52 376 210 432 407 18 65 4
58 164 80 44 6 91 12 105 15 22 3 120 17 215 31 17 2 91 13 165 23 74 11 158
23 185 27 28 3 57 8 65 9 9 2 43 7 75 11 33 4 62 9 65 9 3 1 32 5 65 10 33 4
67 9 75 10 8 2 40 6 70 10 30 3 78 10 105 15 28 5 68 11 90 14 34 4 120 16
290 40 17 3 53 8 80 12 28 3 59 8 70 10 11 3 45 7 75 10 30 4 57 8 59 10 13
12 30 0 35 -23z"/>
<path d="M10183 8980 c-37 -15 -56 -54 -49 -102 3 -24 9 -63 12 -88 9 -75 24
-109 53 -125 64 -33 129 12 123 85 -1 8 -13 101 -16 125 -9 61 -19 82 -45 98
-32 19 -45 20 -78 7z"/>
<path d="M10260 8251 c-34 -33 -34 -23 6 -296 22 -150 24 -158 41 -177 24 -27
76 -33 107 -13 22 14 42 49 39 65 -1 3 -4 30 -7 60 -3 30 -8 66 -11 79 -2 12
-6 42 -9 65 -15 122 -28 191 -38 205 -38 51 -85 55 -128 12z"/>
<path d="M8070 7977 c-250 -149 -324 -198 -328 -221 -4 -17 33 -93 114 -238
24 -42 57 -103 74 -135 17 -32 39 -71 49 -88 9 -16 37 -66 61 -110 23 -44 108
-197 188 -340 80 -143 159 -285 175 -315 112 -204 460 -804 489 -843 13 -18
19 -16 103 28 232 122 449 259 461 290 5 13 -85 202 -177 372 -45 83 -239 435
-272 493 -18 32 -32 58 -92 165 -85 154 -390 684 -483 840 -95 160 -139 225
-151 225 -3 0 -98 -55 -211 -123z"/>
<path d="M3431 8039 c-19 -21 -77 -116 -171 -284 -53 -94 -255 -454 -278 -495
-13 -25 -41 -74 -62 -110 -20 -36 -54 -96 -75 -135 -21 -38 -57 -104 -80 -145
-45 -80 -77 -139 -175 -320 -92 -170 -215 -427 -239 -495 l-21 -60 35 -30 c34
-31 279 -181 408 -250 38 -20 75 -34 83 -31 12 5 149 207 167 246 4 8 18 33
31 55 14 22 37 63 52 90 14 28 35 62 45 77 11 14 19 28 19 31 0 2 34 64 75
137 41 73 75 134 75 136 0 2 18 33 40 69 22 36 40 67 40 69 0 3 24 46 54 98
29 51 69 122 89 158 19 36 68 124 107 195 126 226 278 506 333 613 l52 104
-30 24 c-28 23 -164 109 -265 168 -98 58 -194 99 -239 104 -41 4 -51 1 -70
-19z"/>
<path d="M5878 7535 c-2 -1 -43 -5 -93 -9 -101 -7 -154 -13 -205 -22 -19 -3
-47 -8 -62 -9 -68 -9 -161 -29 -246 -52 -74 -21 -101 -34 -138 -66 -58 -51
-263 -326 -421 -562 -184 -277 -206 -322 -206 -428 0 -78 24 -95 123 -89 258
15 510 169 711 433 50 65 71 83 122 108 141 69 281 88 407 55 110 -28 342
-148 700 -361 229 -136 242 -144 467 -294 231 -154 211 -139 562 -402 341
-255 400 -297 469 -325 60 -26 123 -35 156 -22 38 14 191 136 258 205 31 31
39 63 34 129 -13 154 -135 432 -381 866 -178 314 -296 495 -425 653 -8 11 -29
29 -47 41 -30 21 -36 21 -100 11 -121 -21 -266 -10 -513 40 -14 2 -41 7 -60
10 -19 3 -51 10 -70 15 -19 4 -53 11 -75 14 -22 3 -49 7 -60 9 -11 3 -42 8
-68 11 -27 4 -57 9 -68 11 -10 2 -49 6 -86 10 -37 3 -84 8 -103 11 -35 5 -577
14 -582 9z"/>
<path d="M4045 7387 c-19 -22 -103 -153 -124 -193 -12 -21 -27 -48 -34 -59
-25 -40 -259 -444 -315 -545 -14 -25 -102 -182 -197 -350 -94 -168 -188 -336
-209 -373 l-37 -68 58 -81 c107 -148 196 -228 255 -228 15 0 51 11 80 24 78
36 120 44 190 41 144 -8 277 -94 342 -224 14 -27 29 -52 34 -55 4 -3 28 20 53
51 109 137 169 168 324 167 81 -1 96 -4 154 -33 127 -65 201 -171 222 -318 11
-82 25 -129 41 -139 5 -3 24 -8 41 -11 59 -8 180 -75 232 -128 67 -67 115
-167 122 -254 7 -85 15 -98 66 -112 100 -27 159 -54 214 -98 101 -81 155 -200
155 -340 0 -68 -4 -82 -46 -165 -33 -65 -42 -93 -35 -102 23 -28 337 -114 474
-130 154 -17 268 -9 341 27 51 24 204 155 204 174 0 8 -140 83 -346 186 -191
95 -355 180 -365 190 -15 15 -16 24 -8 51 24 87 66 78 437 -103 334 -163 430
-199 531 -199 36 0 83 5 104 11 76 21 143 108 162 211 13 67 -23 94 -515 383
-449 264 -442 258 -393 315 46 55 49 54 440 -171 125 -72 248 -143 273 -157
25 -14 61 -35 80 -47 19 -12 79 -43 133 -70 112 -54 188 -66 277 -45 68 16
161 104 177 166 10 39 12 159 2 167 -16 15 -228 147 -559 349 -486 297 -526
323 -533 347 -9 36 15 66 56 69 50 4 141 -43 471 -242 142 -86 261 -156 264
-156 3 0 13 -6 21 -14 28 -24 288 -165 384 -208 76 -34 105 -42 164 -44 90 -4
128 7 170 48 51 49 74 105 74 181 1 115 -35 161 -286 363 -272 219 -796 597
-1075 774 -80 50 -161 102 -180 115 -37 23 -178 107 -245 145 -427 242 -497
273 -630 274 -72 1 -87 -3 -148 -32 -70 -35 -126 -85 -258 -232 -177 -197
-392 -305 -687 -344 -54 -7 -153 13 -200 40 -23 14 -54 43 -68 64 -23 34 -26
50 -26 117 0 43 5 98 11 123 22 84 103 230 257 463 l153 232 -47 8 c-133 21
-371 71 -416 87 -29 9 -92 40 -142 69 -96 55 -104 57 -119 38z"/>
<path d="M10390 7352 c-31 -32 -33 -52 -11 -182 6 -36 13 -83 16 -105 2 -22 7
-51 9 -65 3 -14 8 -43 11 -65 10 -78 90 -111 142 -59 24 24 25 30 20 97 -4 40
-9 82 -11 95 -3 13 -10 56 -15 95 -6 40 -13 90 -16 112 -8 58 -24 83 -58 95
-45 15 -56 13 -87 -18z"/>
<path d="M10554 6473 c-51 -10 -70 -66 -54 -156 5 -23 11 -62 14 -87 25 -189
35 -233 57 -256 31 -33 82 -32 116 2 27 27 27 37 9 179 -4 30 -20 139 -21 145
-1 3 -5 33 -9 67 -7 52 -13 67 -38 88 -29 25 -34 26 -74 18z"/>
<path d="M10658 5556 c-35 -29 -39 -47 -28 -124 5 -37 12 -89 15 -117 4 -27 8
-57 10 -65 2 -8 7 -42 10 -75 10 -93 35 -125 95 -125 30 0 43 6 59 26 25 32
26 53 6 182 -8 53 -16 113 -19 132 -12 103 -20 134 -40 155 -30 34 -77 38
-108 11z"/>
<path d="M3605 5393 c-16 -9 -45 -32 -63 -52 -60 -65 -170 -229 -178 -266 -14
-67 -13 -83 6 -136 40 -106 143 -182 249 -183 43 -1 64 4 88 22 47 33 168 187
204 259 29 57 31 69 27 132 -4 57 -11 77 -41 122 -20 30 -52 65 -71 77 -63 43
-167 54 -221 25z"/>
<path d="M4365 5336 c-42 -18 -66 -48 -317 -391 -98 -134 -226 -322 -248 -364
-6 -13 -12 -44 -12 -70 -1 -140 144 -263 294 -249 42 4 54 11 89 49 65 71 150
177 228 284 39 55 77 107 84 115 22 29 117 170 117 174 0 3 13 25 30 49 69
103 81 178 39 264 -54 112 -206 182 -304 139z"/>
<path d="M4804 4840 c-31 -12 -94 -86 -232 -272 -226 -306 -257 -360 -249
-440 10 -88 92 -194 171 -221 34 -11 97 -15 153 -8 49 5 352 405 438 578 28
54 32 73 29 118 -2 30 -10 71 -19 91 -17 40 -79 105 -122 128 -46 23 -137 37
-169 26z"/>
<path d="M10810 4666 c-47 -15 -62 -47 -54 -116 18 -153 22 -167 51 -190 34
-26 76 -25 109 3 22 19 26 31 26 70 -1 26 -3 51 -6 55 -2 4 -7 34 -11 67 -8
71 -17 90 -53 109 -21 11 -34 11 -62 2z"/>
<path d="M5247 4337 c-45 -11 -105 -76 -226 -242 -108 -149 -143 -218 -135
-276 8 -62 37 -118 86 -168 61 -62 92 -75 172 -76 l68 0 72 76 c96 101 198
238 242 326 33 64 36 78 31 126 -7 68 -25 103 -78 156 -73 71 -152 98 -232 78z"/>
</g>
</svg>
